<mxfile host="Electron" modified="2024-05-10T14:54:36.823Z" agent="Mozilla/5.0 (Macintosh; Intel Mac OS X 10_15_7) AppleWebKit/537.36 (KHTML, like Gecko) draw.io/22.1.21 Chrome/120.0.6099.109 Electron/28.1.0 Safari/537.36" etag="ZYhQUyzv7gLu0pgMPXbJ" version="22.1.21" type="device">
  <diagram name="Page-1" id="5bwfGoxVyxnsva-_Hp5g">
    <mxGraphModel dx="1986" dy="1169" grid="1" gridSize="10" guides="1" tooltips="1" connect="1" arrows="1" fold="1" page="1" pageScale="1" pageWidth="850" pageHeight="1100" math="0" shadow="0">
      <root>
        <mxCell id="0" />
        <mxCell id="1" parent="0" />
        <mxCell id="On-hBTKfwMJXzhH4Zwc9-1" value="Github" style="shape=image;aspect=fixed;image=data:image/svg+xml,PD94bWwgdmVyc2lvbj0iMS4wIiBlbmNvZGluZz0iVVRGLTgiPz4KPHN2ZyB3aWR0aD0iNjI0cHgiIGhlaWdodD0iNjExcHgiIHZpZXdCb3g9IjAgMCA2MjQgNjExIiB2ZXJzaW9uPSIxLjEiIHhtbG5zPSJodHRwOi8vd3d3LnczLm9yZy8yMDAwL3N2ZyIgeG1sbnM6eGxpbms9Imh0dHA6Ly93d3cudzMub3JnLzE5OTkveGxpbmsiPgogICAgPCEtLSBHZW5lcmF0b3I6IFNrZXRjaCA1MyAoNzI1MjApIC0gaHR0cHM6Ly9za2V0Y2hhcHAuY29tIC0tPgogICAgPHRpdGxlPkdpdGh1YjwvdGl0bGU+CiAgICA8ZGVzYz5DcmVhdGVkIHdpdGggU2tldGNoLjwvZGVzYz4KICAgIDxnIGlkPSJQYWdlLTEiIHN0cm9rZT0ibm9uZSIgc3Ryb2tlLXdpZHRoPSIxIiBmaWxsPSJub25lIiBmaWxsLXJ1bGU9ImV2ZW5vZGQiPgogICAgICAgIDxnIGlkPSJHaXRodWIiIHRyYW5zZm9ybT0idHJhbnNsYXRlKDUuODI5NDU3LCA1LjA2OTc2MSkiPgogICAgICAgICAgICA8ZyBpZD0iSW5zdGFuYS1Db3B5LTE5IiBmaWxsPSIjRkZGRkZGIiBzdHJva2U9IiM3ODc3NzgiIHN0cm9rZS13aWR0aD0iMTAiPgogICAgICAgICAgICAgICAgPHBhdGggZD0iTTQ5NC45ODYsNjAwIEwxMTguMDEzLDYwMCBDNTMuMTA2LDYwMCAwLDU0Ni44OTQgMCw0ODEuOTg2IEwwLDExOC4wMTQgQzAsNTMuMTA2IDUzLjEwNiwwIDExOC4wMTMsMCBMNDk0Ljk4NiwwIEM1NTkuODkzLDAgNjEzLDUzLjEwNiA2MTMsMTE4LjAxNCBMNjEzLDQ4MS45ODYgQzYxMyw1NDYuODk0IDU1OS44OTMsNjAwIDQ5NC45ODYsNjAwIiBpZD0iV2hpdGUtUmVjdGFuZ2xlIj48L3BhdGg+CiAgICAgICAgICAgIDwvZz4KICAgICAgICAgICAgPGcgdHJhbnNmb3JtPSJ0cmFuc2xhdGUoMTU4LjUwMDAwMCwgMTQ1LjgxMDg2NikiIGZpbGw9IiMxNjE2MTQiIGZpbGwtcnVsZT0ibm9uemVybyIgaWQ9Ikdyb3VwLTgiPgogICAgICAgICAgICAgICAgPGcgdHJhbnNmb3JtPSJ0cmFuc2xhdGUoMC4wMTMwNzUsIDAuNTc4MjM5KSI+CiAgICAgICAgICAgICAgICAgICAgPHBhdGggZD0iTTExMS4yNDgwOTUsMjM0Ljk3NzYxNSBDMTExLjQ2MTc0NCwyMzYuMTQ3ODk0IDExMC4yNDE2OTksMjM3LjM1MTQ1MSAxMDguNTA0NDAyLDIzNy42Njc1OTMgQzEwNi43OTUyMTUsMjM3Ljk3ODE4OCAxMDUuMjA5NzIsMjM3LjI1MTYxNyAxMDQuOTk2MDcyLDIzNi4wOTI0MyBDMTA0Ljc4MjQyMywyMzQuODk0NDE5IDEwNi4wMTkzMzQsMjMzLjY5NjQwOSAxMDcuNzI4NTIxLDIzMy4zODU4MTMgQzEwOS40NzE0NDEsMjMzLjA4NjMxMSAxMTEuMDIzMjAyLDIzMy43OTA2OTYgMTExLjI0ODA5NSwyMzQuOTc3NjE1IE05OS4xMDM4NzY1LDIzNS40Mzc5NjEgQzk5LjE0ODg1NSwyMzYuNjM1OTcyIDk3LjczMjAyOTUsMjM3LjYzNDMxNCA5NS45ODM0ODY5LDIzNy42NTA5NTMgQzk0LjIyMzY5OTYsMjM3LjY4OTc3OCA5Mi44MDEyNTE3LDIzNi43MTkxNjcgOTIuNzc4NzYyNCwyMzUuNTQzMzQyIEM5Mi43Nzg3NjI0LDIzNC4zMzQyMzggOTQuMTYxODU0LDIzMy4zNDY5ODkgOTUuOTIxNjQxMywyMzMuMzE5MjU3IEM5Ny42NzAxODM5LDIzMy4yODA0MzMgOTkuMTAzODc2NSwyMzQuMjQ1NDk3IDk5LjEwMzg3NjUsMjM1LjQzNzk2MSBNODYuNzQ2MDA5MiwyMzQuMDg0NjUzIEM4Ni4zOTE4MDI4LDIzNS4yMjE2NTQgODQuNzM4ODM5NywyMzUuNzQzMDEgODMuMDY5MDA5NiwyMzUuMjU0OTMyIEM4MS40MDQ4MDE4LDIzNC43NjEzMDcgODAuMzE0MDcxLDIzMy40MzAxODQgODAuNjUxNDEwNCwyMzIuMjc2NTQ0IEM4MC45OTQzNzIxLDIzMS4xMzM5OTcgODIuNjU4NTc5OSwyMzAuNTkwNDU1IDg0LjMzOTY1NDcsMjMxLjExMTgxMSBDODYuMDAzODYyNSwyMzEuNjA1NDM2IDg3LjA5NDU5MzIsMjMyLjkzMTAxMyA4Ni43NDYwMDkyLDIzNC4wODQ2NTMgTTc1Ljg4MzY4LDIzMC44OTU1MDQgQzc1LjA3OTY4NzcsMjMxLjc3MTgyNiA3My4zNTkyNTY3LDIzMS41Mzg4OCA3Mi4xMDU0Nzg1LDIzMC4zNDA4NjkgQzcwLjgxNzk2NjQsMjI5LjE3MDU5IDcwLjQ1ODEzNzcsMjI3LjUwNjY4NiA3MS4yNjc3NTIzLDIyNi42MzAzNjMgQzcyLjA4Mjk4OTIsMjI1Ljc0ODQ5NCA3My44MTQ2NjQ5LDIyNS45OTgwOCA3NS4wNzk2ODc3LDIyNy4xODQ5OTggQzc2LjM1NTk1NTIsMjI4LjM1NTI3NyA3Ni43NDk1MTc4LDIzMC4wMjQ3MjcgNzUuODgzNjgsMjMwLjg5NTUwNCBNNjcuNDgzOTI4NSwyMjEuNDUwMDc2IEM2Ni41ODQzNTY4LDIyMi4wNjU3MiA2NS4xMDU2ODU3LDIyMS40ODMzNTQgNjQuMTk0ODY5MiwyMjAuMTk2NjAyIEM2My4yOTUyOTc1LDIxOC45MDQzMDMgNjMuMjk1Mjk3NSwyMTcuMzUxMzI2IDY0LjIxMTczNjIsMjE2LjczNTY4MiBDNjUuMTI4MTc1LDIxNi4xMTQ0OTEgNjYuNTg0MzU2OCwyMTYuNjY5MTI2IDY3LjUwNjQxNzgsMjE3Ljk1NTg3OCBDNjguNDA1OTg5NiwyMTkuMjY0ODE2IDY4LjQwNTk4OTYsMjIwLjgxMjI0NiA2Ny40ODM5Mjg1LDIyMS40NTAwNzYgTTYyLjUxMzc5NDUsMjEzLjI5MTQwMSBDNjEuODE2NjI2NCwyMTMuOTM0Nzc3IDYwLjQzOTE1NzEsMjEzLjYzNTI3NCA1OS41MDU4NTE0LDIxMi42MjAyOTMgQzU4LjU0NDQzNCwyMTEuNjA1MzExIDU4LjM2NDUxOTcsMjEwLjI1MjAwMyA1OS4wNzg1NTQ4LDIwOS42MDMwOCBDNTkuODAzODM0NSwyMDguOTY1MjUxIDYxLjEzMDcwMjksMjA5LjI1OTIwNyA2Mi4wOTc3NDI1LDIxMC4yNzQxODggQzYzLjA1OTE1OTksMjExLjI5NDcxNiA2My4yNTAzMTg5LDIxMi42NDI0NzggNjIuNTEzNzk0NSwyMTMuMjkxNDAxIE01NS4yNzIyNDE3LDIwNi45MTMxMDMgQzU0Ljk0NjE0NjksMjA3LjYzNDEyOCA1My43OTkxOTI5LDIwNy44NTA0MzUgNTIuNzQ3ODE4NCwyMDcuMzYyMzU3IEM1MS42Nzk1NzY5LDIwNi44ODUzNzEgNTEuMDc3OTg4MywyMDUuOTAzNjY4IDUxLjQyNjU3MjMsMjA1LjE3NzA5NiBDNTEuNzQ3MDQ0OCwyMDQuNDMzODg2IDUyLjg5OTYyMTEsMjA0LjIyODY3MSA1My45NjIyNDAzLDIwNC43Mjc4NDIgQzU1LjAzMDQ4MTgsMjA1LjE5OTI4MiA1NS42NDMzMTUsMjA2LjE5NzYyNCA1NS4yNzIyNDE3LDIwNi45MTMxMDMgTTE0Ny4zNjU5MDIsMC4wMDExMDkyNjkyNSBDNjYuMDU1ODU4MywwLjAwMTEwOTI2OTI1IDAuMTIyODY5NTE0LDY1LjAzMjAxOTEgMC4xMjI4Njk1MTQsMTQ1LjI1NDM3MSBDMC4xMjI4Njk1MTQsMjA5LjQzMTE0NCA0Mi4zMTI3ODU4LDI2My44Nzk2MjUgMTAwLjgxODY4NSwyODMuMDg2NjIyIEMxMDguMTc4MzA3LDI4NC40Mjg4MzggMTEwLjg4MjY0NCwyNzkuOTMwNzUxIDExMC44ODI2NDQsMjc2LjA5ODIyNiBDMTEwLjg4MjY0NCwyNzIuNjMxNzU5IDExMC43NDIwODYsMjYxLjE5NTE5MyAxMTAuNjgwMjQxLDI0OS4wNTQyNDEgQzY5LjcxNTk5MSwyNTcuODM5NjU0IDYxLjA3NDQ3OTYsMjMxLjkxNjAzMSA2MS4wNzQ0Nzk2LDIzMS45MTYwMzEgQzU0LjM3MjY2OTksMjE1LjEyNzI0MSA0NC43MjQ3NjI2LDIxMC42NjI0MzMgNDQuNzI0NzYyNiwyMTAuNjYyNDMzIEMzMS4zNjYxMjE3LDIwMS42NDQwNzQgNDUuNzMxMTU4NSwyMDEuODI3MTAzIDQ1LjczMTE1ODUsMjAxLjgyNzEwMyBDNjAuNTE3ODY5NiwyMDIuODU4NzIzIDY4LjI5OTE2NTUsMjE2LjgwMjIzOCA2OC4yOTkxNjU1LDIxNi44MDIyMzggQzgxLjQzMjkxMzQsMjM5LjAwOTgwOCAxMDIuNzQ3MTQyLDIzMi41ODcxMzkgMTExLjE0Njg5NCwyMjguODcxMDg3IEMxMTIuNDczNzYyLDIxOS40ODY2NjkgMTE2LjI4NTY5NywyMTMuMDgwNjQgMTIwLjQ5NjgxOCwyMDkuNDQ3NzgzIEM4Ny43OTE3NjE0LDIwNS43NzYxMDIgNTMuNDExMjUyNiwxOTMuMzI0NTU0IDUzLjQxMTI1MjYsMTM3LjY2Njk3IEM1My40MTEyNTI2LDEyMS44MDk5NjYgNTkuMTYyODg5NiwxMDguODUzNzAxIDY4LjU4NTkwNCw5OC42ODE3MDE4IEM2Ny4wNTY2MzE5LDk1LjAyMTExMzMgNjIuMDE5MDMsODAuMjUxMTkzMiA3MC4wMTM5NzQyLDYwLjIzOTk3NTkgQzcwLjAxMzk3NDIsNjAuMjM5OTc1OSA4Mi4zNzc0NjM3LDU2LjMzNTM0ODEgMTEwLjUxMTU3MSw3NS4xMzE5MTU2IEMxMjIuMjU2NjA1LDcxLjkxNTAzNDggMTM0Ljg1NjIzMiw3MC4zMDEwNDggMTQ3LjM2NTkwMiw3MC4yNDU1ODQ1IEMxNTkuODgxMTk1LDcwLjMwMTA0OCAxNzIuNDg2NDQ0LDcxLjkxNTAzNDggMTg0LjI1Mzk2Nyw3NS4xMzE5MTU2IEMyMTIuMzU0MzQxLDU2LjMzNTM0ODEgMjI0LjcwNjU4Niw2MC4yMzk5NzU5IDIyNC43MDY1ODYsNjAuMjM5OTc1OSBDMjMyLjcxODM5Nyw4MC4yNTExOTMyIDIyNy42NzUxNzIsOTUuMDIxMTEzMyAyMjYuMTUxNTIzLDk4LjY4MTcwMTggQzIzNS41OTE0MDQsMTA4Ljg1MzcwMSAyNDEuMzAzNjg1LDEyMS44MDk5NjYgMjQxLjMwMzY4NSwxMzcuNjY2OTcgQzI0MS4zMDM2ODUsMTkzLjQ1NzY2NyAyMDYuODU1NzA4LDIwNS43NDI4MjMgMTc0LjA2NjMxNywyMDkuMzM2ODU2IEMxNzkuMzUxMzAxLDIxMy44NDA0ODkgMTg0LjA1NzE4NiwyMjIuNjgxMzY1IDE4NC4wNTcxODYsMjM2LjIzNjYzNSBDMTg0LjA1NzE4NiwyNTUuNjY1NDg2IDE4My44ODI4OTQsMjcxLjMxMTcyOSAxODMuODgyODk0LDI3Ni4wOTgyMjYgQzE4My44ODI4OTQsMjc5Ljk1ODQ4MyAxODYuNTM2NjMxLDI4NC40ODk4NDggMTkzLjk5NzQ1NCwyODMuMDY0NDM3IEMyNTIuNDY5NjIsMjYzLjgzNTI1NCAyOTQuNjA4OTM1LDIwOS40MDg5NTggMjk0LjYwODkzNSwxNDUuMjU0MzcxIEMyOTQuNjA4OTM1LDY1LjAzMjAxOTEgMjI4LjY4MTU2OCwwLjAwMTEwOTI2OTI1IDE0Ny4zNjU5MDIsMC4wMDExMDkyNjkyNSIgaWQ9IkZpbGwtNyI+PC9wYXRoPgogICAgICAgICAgICAgICAgPC9nPgogICAgICAgICAgICA8L2c+CiAgICAgICAgPC9nPgogICAgPC9nPgo8L3N2Zz4=;fontFamily=IBM Plex Sans;fontSource=fonts%2FIBMPlexSans-Regular.woff;labelPosition=center;verticalLabelPosition=bottom;align=center;verticalAlign=top;fontSize=14;spacingTop=-6;fontStyle=0" vertex="1" parent="1">
          <mxGeometry x="190" y="220" width="48" height="47" as="geometry" />
        </mxCell>
        <mxCell id="On-hBTKfwMJXzhH4Zwc9-3" style="edgeStyle=orthogonalEdgeStyle;rounded=0;orthogonalLoop=1;jettySize=auto;html=1;entryX=0;entryY=0.5;entryDx=0;entryDy=0;" edge="1" parent="1" source="On-hBTKfwMJXzhH4Zwc9-2" target="On-hBTKfwMJXzhH4Zwc9-1">
          <mxGeometry relative="1" as="geometry" />
        </mxCell>
        <mxCell id="On-hBTKfwMJXzhH4Zwc9-4" value="Git push" style="edgeLabel;html=1;align=center;verticalAlign=middle;resizable=0;points=[];" vertex="1" connectable="0" parent="On-hBTKfwMJXzhH4Zwc9-3">
          <mxGeometry x="-0.1347" relative="1" as="geometry">
            <mxPoint as="offset" />
          </mxGeometry>
        </mxCell>
        <mxCell id="On-hBTKfwMJXzhH4Zwc9-2" value="Devices" style="shape=image;aspect=fixed;image=data:image/svg+xml,PHN2ZyBpZD0iTGF5ZXJfMSIgZGF0YS1uYW1lPSJMYXllciAxIiB4bWxucz0iaHR0cDovL3d3dy53My5vcmcvMjAwMC9zdmciIHZpZXdCb3g9IjAgMCA0OSA0OSI+PGRlZnM+PHN0eWxlPi5jbHMtMXtmaWxsOm5vbmU7fS5jbHMtMntmaWxsOiNmZmY7ZmlsbC1ydWxlOmV2ZW5vZGQ7fTwvc3R5bGU+PC9kZWZzPjxyZWN0IHg9IjAuNSIgeT0iMC41IiB3aWR0aD0iNDgiIGhlaWdodD0iNDgiIHJ4PSIyNCIvPjxyZWN0IGNsYXNzPSJjbHMtMSIgeD0iMTQuNSIgeT0iMTQuNSIgd2lkdGg9IjIwIiBoZWlnaHQ9IjIwIi8+PHBhdGggaWQ9IkZpbGwtMSIgY2xhc3M9ImNscy0yIiBkPSJNMTYuNDYsMzEuODdoNHYtOGgtNFptNCwxLjM0aC00YTEuMzQsMS4zNCwwLDAsMS0xLjM0LTEuMzR2LThhMS4zNCwxLjM0LDAsMCwxLDEuMzQtMS4zNGg0YTEuMzQsMS4zNCwwLDAsMSwxLjM0LDEuMzR2OGExLjM0LDEuMzQsMCwwLDEtMS4zNCwxLjM0WiIvPjxwYXRoIGlkPSJGaWxsLTMiIGNsYXNzPSJjbHMtMiIgZD0iTTMyLjU0LDE1Ljc5SDE3LjhhMS4zNCwxLjM0LDAsMCwwLTEuMzQsMS4zNHY0SDE3Ljh2LTRIMzIuNTR2OS4zOEgyMy4xNnYxLjM0SDI0LjV2Mi42OEgyMy4xNnYxLjM0aDZWMzAuNTNIMjUuODRWMjcuODVoNi43YTEuMzQsMS4zNCwwLDAsMCwxLjM0LTEuMzRWMTcuMTNhMS4zNCwxLjM0LDAsMCwwLTEuMzQtMS4zNCIvPjwvc3ZnPg==;fontFamily=IBM Plex Sans;fontSource=fonts%2FIBMPlexSans-Regular.woff;fontSize=14;labelPosition=center;verticalLabelPosition=bottom;align=center;verticalAlign=top;spacingTop=-7;" vertex="1" parent="1">
          <mxGeometry x="20" y="220" width="48" height="48" as="geometry" />
        </mxCell>
        <mxCell id="On-hBTKfwMJXzhH4Zwc9-8" style="edgeStyle=orthogonalEdgeStyle;rounded=0;orthogonalLoop=1;jettySize=auto;html=1;exitX=0;exitY=0.5;exitDx=0;exitDy=0;entryX=1.009;entryY=0.22;entryDx=0;entryDy=0;entryPerimeter=0;fontFamily=IBM Plex Sans;fontSource=fonts%2FIBMPlexSans-Regular.woff;fontSize=14;startArrow=oval;startFill=1;strokeColor=#198038;" edge="1" parent="1">
          <mxGeometry relative="1" as="geometry" />
        </mxCell>
        <mxCell id="On-hBTKfwMJXzhH4Zwc9-11" value="" style="group" vertex="1" connectable="0" parent="1">
          <mxGeometry x="320" y="180" width="240" height="152" as="geometry" />
        </mxCell>
        <mxCell id="On-hBTKfwMJXzhH4Zwc9-5" value="" style="rounded=0;whiteSpace=wrap;html=1;fontFamily=IBM Plex Sans;fontSource=fonts%2FIBMPlexSans-Regular.woff;fontSize=14;spacingBottom=-28;spacingTop=0;labelPosition=-100;verticalLabelPosition=top;align=center;verticalAlign=bottom;spacingLeft=9;spacing=0;expand=0;recursiveResize=0;spacingRight=0;container=0;collapsible=0;strokeColor=#666666;fillColor=#f5f5f5;fontColor=#333333;" vertex="1" parent="On-hBTKfwMJXzhH4Zwc9-11">
          <mxGeometry width="240" height="152" as="geometry">
            <mxRectangle width="670" as="alternateBounds" />
          </mxGeometry>
        </mxCell>
        <mxCell id="On-hBTKfwMJXzhH4Zwc9-6" value="" style="rounded=0;whiteSpace=wrap;html=1;strokeColor=none;fillColor=#878d96;" vertex="1" parent="On-hBTKfwMJXzhH4Zwc9-11">
          <mxGeometry width="7" height="37" as="geometry" />
        </mxCell>
        <mxCell id="On-hBTKfwMJXzhH4Zwc9-7" value="Github action" style="text;html=1;strokeColor=none;fillColor=none;align=left;verticalAlign=middle;whiteSpace=wrap;rounded=0;fontFamily=IBM Plex Sans;fontSource=fonts%2FIBMPlexSans-Regular.woff;fontSize=14;" vertex="1" parent="On-hBTKfwMJXzhH4Zwc9-11">
          <mxGeometry x="50" y="7" width="168" height="20" as="geometry" />
        </mxCell>
        <mxCell id="On-hBTKfwMJXzhH4Zwc9-9" value="" style="shape=image;aspect=fixed;image=data:image/svg+xml,PD94bWwgdmVyc2lvbj0iMS4wIiBlbmNvZGluZz0iVVRGLTgiPz4KPHN2ZyBpZD0iaWNvbiIgeG1sbnM9Imh0dHA6Ly93d3cudzMub3JnLzIwMDAvc3ZnIiB3aWR0aD0iMzIiIGhlaWdodD0iMzIiIHZpZXdCb3g9IjAgMCAzMiAzMiI+CiAgPGRlZnM+CiAgICA8c3R5bGU+CiAgICAgIC5jbHMtMSB7CiAgICAgICAgZmlsbDogbm9uZTsKICAgICAgfQogICAgPC9zdHlsZT4KICA8L2RlZnM+CiAgPHBhdGggZD0ibTMxLDE3YzAtMS42NTQzLTEuMzQ1Ny0zLTMtM3MtMywxLjM0NTctMywzYzAsMS4zMDE4LjgzODQsMi40MDE0LDIsMi44MTU0djIuNjEwNGwtMTEsNi40MTY1LTEwLjAxNTQtNS44NDIzLDIyLjUxOTMtMTMuMTM2MmMuMzA3MS0uMTc5Mi40OTYxLS41MDgzLjQ5NjEtLjg2MzhzLS4xODktLjY4NDYtLjQ5NjEtLjg2MzhMMTYuNTAzOSwxLjEzNjJjLS4xNTU4LS4wOTA4LS4zMjk4LS4xMzYyLS41MDM5LS4xMzYycy0uMzQ4MS4wNDU0LS41MDM5LjEzNjJMMy40OTYxLDguMTM2MmMtLjMwNzEuMTc5Mi0uNDk2MS41MDgzLS40OTYxLjg2Mzh2My4xODQ2Yy0xLjE2MTYuNDE0MS0yLDEuNTEzNy0yLDIuODE1NCwwLDEuNjU0MywxLjM0NTcsMywzLDNzMy0xLjM0NTcsMy0zYzAtMS4zMDE4LS44Mzg0LTIuNDAxNC0yLTIuODE1OXYtMi42MDk5bDExLTYuNDE2NSwxMC4wMTU0LDUuODQyM0wzLjQ5NjEsMjIuMTM2MmMtLjMwNzEuMTc5Mi0uNDk2MS41MDgzLS40OTYxLjg2MzhzLjE4OS42ODQ2LjQ5NjEuODYzOGwxMiw3Yy4xNTU4LjA5MDguMzI5OC4xMzYyLjUwMzkuMTM2MnMuMzQ4MS0uMDQ1NC41MDM5LS4xMzYybDEyLTdjLjMwNzEtLjE3OTIuNDk2MS0uNTA4My40OTYxLS44NjM4di0zLjE4NDFjMS4xNjE2LS40MTQ2LDItMS41MTQyLDItMi44MTU5Wm0tMjctMWMtLjU1MTUsMC0xLS40NDg3LTEtMXMuNDQ4NS0xLDEtMSwxLC40NDg3LDEsMS0uNDQ4NSwxLTEsMVptMjQsMmMtLjU1MTUsMC0xLS40NDg3LTEtMXMuNDQ4NS0xLDEtMSwxLC40NDg3LDEsMS0uNDQ4NSwxLTEsMVoiLz4KICA8cmVjdCBpZD0iX1RyYW5zcGFyZW50X1JlY3RhbmdsZV8iIGRhdGEtbmFtZT0iJmFtcDtsdDtUcmFuc3BhcmVudCBSZWN0YW5nbGUmYW1wO2d0OyIgY2xhc3M9ImNscy0xIiB3aWR0aD0iMzIiIGhlaWdodD0iMzIiLz4KPC9zdmc+;" vertex="1" parent="On-hBTKfwMJXzhH4Zwc9-11">
          <mxGeometry x="17" y="5" width="22" height="22" as="geometry" />
        </mxCell>
        <mxCell id="On-hBTKfwMJXzhH4Zwc9-10" value="&lt;ol style=&quot;border-color: var(--border-color); font-family: &amp;quot;IBM Plex Sans&amp;quot;; font-size: 14px; text-align: left;&quot;&gt;&lt;li style=&quot;border-color: var(--border-color);&quot;&gt;Clone repo&lt;/li&gt;&lt;li style=&quot;border-color: var(--border-color);&quot;&gt;&lt;span style=&quot;border-color: var(--border-color); background-color: initial;&quot;&gt;Build Container Image&lt;/span&gt;&lt;/li&gt;&lt;li style=&quot;border-color: var(--border-color);&quot;&gt;&lt;span style=&quot;border-color: var(--border-color); background-color: initial;&quot;&gt;Push image to IBM Cloud&lt;/span&gt;&lt;/li&gt;&lt;li style=&quot;border-color: var(--border-color);&quot;&gt;&lt;span style=&quot;border-color: var(--border-color); background-color: initial;&quot;&gt;Container Registry&lt;/span&gt;&lt;/li&gt;&lt;/ol&gt;" style="text;html=1;align=center;verticalAlign=middle;resizable=0;points=[];autosize=1;strokeColor=none;fillColor=none;" vertex="1" parent="On-hBTKfwMJXzhH4Zwc9-11">
          <mxGeometry x="7" y="27" width="220" height="110" as="geometry" />
        </mxCell>
        <mxCell id="On-hBTKfwMJXzhH4Zwc9-12" style="edgeStyle=orthogonalEdgeStyle;rounded=0;orthogonalLoop=1;jettySize=auto;html=1;entryX=0.004;entryY=0.414;entryDx=0;entryDy=0;entryPerimeter=0;" edge="1" parent="1" source="On-hBTKfwMJXzhH4Zwc9-1" target="On-hBTKfwMJXzhH4Zwc9-5">
          <mxGeometry relative="1" as="geometry" />
        </mxCell>
        <mxCell id="On-hBTKfwMJXzhH4Zwc9-17" value="" style="rounded=0;whiteSpace=wrap;html=1;fontFamily=IBM Plex Sans;fontSource=fonts%2FIBMPlexSans-Regular.woff;fontSize=14;spacingBottom=-28;spacingTop=0;labelPosition=-100;verticalLabelPosition=top;align=center;verticalAlign=bottom;spacingLeft=9;spacing=0;expand=0;recursiveResize=0;spacingRight=0;container=1;collapsible=0;" vertex="1" parent="1">
          <mxGeometry x="68" y="420" width="602" height="440" as="geometry">
            <mxRectangle width="670" as="alternateBounds" />
          </mxGeometry>
        </mxCell>
        <mxCell id="On-hBTKfwMJXzhH4Zwc9-18" value="" style="rounded=0;whiteSpace=wrap;html=1;strokeColor=none;fillColor=#1192E8;" vertex="1" parent="On-hBTKfwMJXzhH4Zwc9-17">
          <mxGeometry width="7" height="37" as="geometry" />
        </mxCell>
        <mxCell id="On-hBTKfwMJXzhH4Zwc9-19" value="IBM Cloud" style="text;html=1;strokeColor=none;fillColor=none;align=left;verticalAlign=middle;whiteSpace=wrap;rounded=0;fontFamily=IBM Plex Sans;fontSource=fonts%2FIBMPlexSans-Regular.woff;fontSize=14;" vertex="1" parent="On-hBTKfwMJXzhH4Zwc9-17">
          <mxGeometry x="51" y="8" width="163" height="20" as="geometry" />
        </mxCell>
        <mxCell id="On-hBTKfwMJXzhH4Zwc9-20" value="" style="shape=image;aspect=fixed;image=data:image/svg+xml,PD94bWwgdmVyc2lvbj0iMS4wIiBlbmNvZGluZz0iVVRGLTgiPz4KPHN2ZyB3aWR0aD0iMzNweCIgaGVpZ2h0PSIzMXB4IiB2aWV3Qm94PSIwIDAgMzMgMzEiIHZlcnNpb249IjEuMSIgeG1sbnM9Imh0dHA6Ly93d3cudzMub3JnLzIwMDAvc3ZnIiB4bWxuczp4bGluaz0iaHR0cDovL3d3dy53My5vcmcvMTk5OS94bGluayI+CiAgICA8IS0tIEdlbmVyYXRvcjogU2tldGNoIDUzICg3MjUyMCkgLSBodHRwczovL3NrZXRjaGFwcC5jb20gLS0+CiAgICA8dGl0bGU+SUJNIENsb3VkIEJsYWNrPC90aXRsZT4KICAgIDxkZXNjPkNyZWF0ZWQgd2l0aCBTa2V0Y2guPC9kZXNjPgogICAgPGcgaWQ9IlBhZ2UtMSIgc3Ryb2tlPSJub25lIiBzdHJva2Utd2lkdGg9IjEiIGZpbGw9Im5vbmUiIGZpbGwtcnVsZT0iZXZlbm9kZCI+CiAgICAgICAgPGcgaWQ9IklCTS1DbG91ZC1CbGFjayIgdHJhbnNmb3JtPSJ0cmFuc2xhdGUoMC43ODQ3MjIsIDAuNTAwMTI1KSIgZmlsbD0iIzAwMDAwMCI+CiAgICAgICAgICAgIDxwYXRoIGQ9Ik0yNy4xMDIxLDI3LjAxMDYgQzI1Ljg3MDEsMjcuODc5NiAyNC4zNjExLDI4LjI2NzYgMjIuODUzMSwyOC4yNjc2IEw3LjAwNDEsMjguMjY3NiBDNC4xMTIxLDI4LjI3NDYgMS43NjIxLDI1LjkzNDYgMS43NTUxLDIzLjA0MjYgQzEuNzQ5MSwyMC40MTA2IDMuNjk3MSwxOC4xODM2IDYuMzA1MSwxNy44Mzg2IEM2LjQxMTEsMTkuMTYxNiA2Ljc4NzEsMjAuNDQ5NiA3LjQwOTEsMjEuNjIxNiBDNy41OTUxLDIxLjk5MTYgOC4wNDYxLDIyLjE0MDYgOC40MTYxLDIxLjk1NDYgQzguNzg2MSwyMS43Njc2IDguOTM1MSwyMS4zMTc2IDguNzQ4MSwyMC45NDc2IEw4LjczMDEsMjAuOTEyNiBDNy4xMzIxLDE3LjkzNTYgNy40MjkxLDE0LjIxNzYgOS42NzIxLDExLjY4OTYgQzEzLjQ4NjEsNy4zOTI2IDE5Ljc4NzEsOC4wNTI2IDIyLjc1NzEsMTIuMjgxNiBDMjAuMzM0MSwxMi4zNDc2IDE4LjA0NzEsMTMuNDE1NiAxNi40NDExLDE1LjIzMDYgQzE2LjE2MTEsMTUuNTM1NiAxNi4xODExLDE2LjAxMDYgMTYuNDg1MSwxNi4yOTA2IEMxNi43ODkxLDE2LjU3MTYgMTcuMjY0MSwxNi41NTI2IDE3LjU0NTEsMTYuMjQ3NiBMMTcuNTY2MSwxNi4yMjI2IEMxOS41OTUxLDEzLjkyMzYgMjIuODg0MSwxMy4wNTI2IDI1LjcwMzEsMTQuMjYzNiBDMzEuMTY1MSwxNi42MDk2IDMxLjgxMDEsMjMuNjkyNiAyNy4xMDIxLDI3LjAxMDYgTTI0LjU4NTEsMTIuOTE3NiBDMjIuMDU0MSw4LjE3NTYgMTYuMTU5MSw2LjM4MjYgMTEuNDE2MSw4LjkxMzYgQzguNDY1MSwxMC40ODg2IDYuNTI5MSwxMy40Njg2IDYuMjkwMSwxNi44MDY2IEMyLjU4NDEsMTcuMjA0NiAtMC4wOTc5LDIwLjUzMjYgMC4zMDExLDI0LjIzOTYgQzAuNjY5MSwyNy42NjU2IDMuNTU5MSwzMC4yNjM2IDcuMDA0MSwzMC4yNjc2IEwyMy4wMDQxLDMwLjI2NzYgQzI3LjgzNTEsMzAuMjcwNiAzMS43NTMxLDI2LjM1NzYgMzEuNzU2MSwyMS41MjY2IEMzMS43NTkxLDE3LjMwMTYgMjguNzQxMSwxMy42Nzg2IDI0LjU4NTEsMTIuOTE3NiIgaWQ9IkZpbGwtMSI+PC9wYXRoPgogICAgICAgICAgICA8ZyBpZD0iR3JvdXAtNSIgdHJhbnNmb3JtPSJ0cmFuc2xhdGUoMjcuMDAwMDAwLCA4LjI2NzcwMCkiPgogICAgICAgICAgICAgICAgPHBhdGggZD0iTTQuOTAyOCwwLjkxOTcgQzQuNjkzOCwwLjU1NjcgNC4yMjk4LDAuNDMyNyAzLjg2NjgsMC42NDE3IEMzLjg2NjgsMC42NDE3IDMuODY2OCwwLjY0MTcgMy44NjY4LDAuNjQyNyBMMC44NDY4LDIuMzg1NyBDMC40Nzg4LDIuNTg2NyAwLjM0MzgsMy4wNDc3IDAuNTQ0OCwzLjQxNTcgQzAuNzQ1OCwzLjc4MzcgMS4yMDY4LDMuOTE4NyAxLjU3NDgsMy43MTc3IEMxLjU4NDgsMy43MTE3IDEuNTk0OCwzLjcwNTcgMS42MDQ4LDMuNjk5NyBMNC42MjQ4LDEuOTU2NyBDNC45ODc4LDEuNzQ2NyA1LjExMTgsMS4yODI3IDQuOTAyOCwwLjkxOTciIGlkPSJGaWxsLTMiPjwvcGF0aD4KICAgICAgICAgICAgPC9nPgogICAgICAgICAgICA8cGF0aCBkPSJNMjIuNjgxMiw2LjgwMjYgQzIzLjA0MzIsNy4wMTI2IDIzLjUwNzIsNi44ODg2IDIzLjcxNzIsNi41MjU2IEwyMy43MTcyLDYuNTI1NiBMMjUuNDYxMiwzLjUwNTYgQzI1LjY2ODIsMy4xNDA2IDI1LjU0MDIsMi42Nzc2IDI1LjE3NjIsMi40NzA2IEMyNC44MTUyLDIuMjY2NiAyNC4zNTcyLDIuMzg4NiAyNC4xNDcyLDIuNzQ2NiBMMjIuNDAzMiw1Ljc2NjYgQzIyLjE5NDIsNi4xMjk2IDIyLjMxODIsNi41OTM2IDIyLjY4MTIsNi44MDI2IiBpZD0iRmlsbC02Ij48L3BhdGg+CiAgICAgICAgICAgIDxwYXRoIGQ9Ik0xNi4wMDQ0LDUuMDE0MSBDMTYuNDIzNCw1LjAxNDEgMTYuNzYzNCw0LjY3NDEgMTcuMzM1NCw0LjI1NTEgTDE3LjMzNTQsMC43NjcxIEMxNi43Njg0LDAuMzQ4MSAxNi40MzI0LDAuMDA1MSAxNi4wMTM0LDAuMDAwMSBDMTUuNTk0NCwtMC4wMDQ5IDE1LjI1MTQsMC4zMzExIDE1LjMzNTQsMC43NTAxIEwxNS4zMzU0LDAuNzY3MSBMMTUuMzM1NCw0LjI1NTEgQzE1LjI0NjQsNC42NzQxIDE1LjU4NTQsNS4wMTQxIDE2LjAwNDQsNS4wMTQxIiBpZD0iRmlsbC04Ij48L3BhdGg+CiAgICAgICAgICAgIDxwYXRoIGQ9Ik04LjI5Miw2LjUyNDggQzguNTA0LDYuODg1OCA4Ljk2OSw3LjAwNjggOS4zMzEsNi43OTQ4IEM5LjY4OCw2LjU4NDggOS44MTEsNi4xMjY4IDkuNjA2LDUuNzY1OCBMNy44NjIsMi43NDU4IEM3LjY1NSwyLjM4MTggNy4xOTIsMi4yNTM4IDYuODI4LDIuNDYwOCBDNi40NjMsMi42Njc4IDYuMzM1LDMuMTMwOCA2LjU0MiwzLjQ5NDggQzYuNTQ0LDMuNDk4OCA2LjU0NiwzLjUwMTggNi41NDgsMy41MDQ4IEw4LjI5Miw2LjUyNDggWiIgaWQ9IkZpbGwtMTAiPjwvcGF0aD4KICAgICAgICAgICAgPGcgaWQ9Ikdyb3VwLTE0IiB0cmFuc2Zvcm09InRyYW5zbGF0ZSgwLjAwMDAwMCwgOC4yNjc3MDApIj4KICAgICAgICAgICAgICAgIDxwYXRoIGQ9Ik00LjE2MzEsMi4zODYgTDEuMTQzMSwwLjY0MiBDMC43ODIxLDAuNDMgMC4zMTcxLDAuNTUxIDAuMTA0MSwwLjkxMiBDLTAuMTA3OSwxLjI3MyAwLjAxMzEsMS43MzkgMC4zNzQxLDEuOTUgQzAuMzc4MSwxLjk1MiAwLjM4MTEsMS45NTQgMC4zODQxLDEuOTU2IEwzLjQwNTEsMy43IEMzLjc2NjEsMy45MTIgNC4yMzExLDMuNzkxIDQuNDQzMSwzLjQzIEM0LjY1NTEsMy4wNjkgNC41MzUxLDIuNjA0IDQuMTczMSwyLjM5MiBDNC4xNzAxLDIuMzkgNC4xNjYxLDIuMzg4IDQuMTYzMSwyLjM4NiBaIiBpZD0iRmlsbC0xMiI+PC9wYXRoPgogICAgICAgICAgICA8L2c+CiAgICAgICAgPC9nPgogICAgPC9nPgo8L3N2Zz4=;" vertex="1" parent="On-hBTKfwMJXzhH4Zwc9-17">
          <mxGeometry x="20" y="7" width="21" height="19.73" as="geometry" />
        </mxCell>
        <mxCell id="On-hBTKfwMJXzhH4Zwc9-21" value="" style="rounded=0;whiteSpace=wrap;html=1;fontFamily=IBM Plex Sans;fontSource=fonts%2FIBMPlexSans-Regular.woff;fontSize=14;spacingBottom=-28;spacingTop=0;labelPosition=-100;verticalLabelPosition=top;align=center;verticalAlign=bottom;spacingLeft=9;spacing=0;expand=0;recursiveResize=0;spacingRight=0;container=1;collapsible=0;strokeColor=#666666;fillColor=#f5f5f5;fontColor=#333333;" vertex="1" parent="On-hBTKfwMJXzhH4Zwc9-17">
          <mxGeometry x="62" y="54" width="488" height="366" as="geometry">
            <mxRectangle width="670" as="alternateBounds" />
          </mxGeometry>
        </mxCell>
        <mxCell id="On-hBTKfwMJXzhH4Zwc9-22" value="" style="rounded=0;whiteSpace=wrap;html=1;strokeColor=none;fillColor=#878d96;" vertex="1" parent="On-hBTKfwMJXzhH4Zwc9-21">
          <mxGeometry width="7" height="37" as="geometry" />
        </mxCell>
        <mxCell id="On-hBTKfwMJXzhH4Zwc9-23" value="Region" style="text;html=1;strokeColor=none;fillColor=none;align=left;verticalAlign=middle;whiteSpace=wrap;rounded=0;fontFamily=IBM Plex Sans;fontSource=fonts%2FIBMPlexSans-Regular.woff;fontSize=14;" vertex="1" parent="On-hBTKfwMJXzhH4Zwc9-21">
          <mxGeometry x="51" y="8" width="168" height="20" as="geometry" />
        </mxCell>
        <mxCell id="On-hBTKfwMJXzhH4Zwc9-24" style="edgeStyle=orthogonalEdgeStyle;rounded=0;orthogonalLoop=1;jettySize=auto;html=1;exitX=0;exitY=0.5;exitDx=0;exitDy=0;entryX=1.009;entryY=0.22;entryDx=0;entryDy=0;entryPerimeter=0;fontFamily=IBM Plex Sans;fontSource=fonts%2FIBMPlexSans-Regular.woff;fontSize=14;startArrow=oval;startFill=1;strokeColor=#198038;" edge="1" parent="On-hBTKfwMJXzhH4Zwc9-21">
          <mxGeometry relative="1" as="geometry" />
        </mxCell>
        <mxCell id="On-hBTKfwMJXzhH4Zwc9-25" value="" style="shape=image;aspect=fixed;image=data:image/svg+xml,PD94bWwgdmVyc2lvbj0iMS4wIiBlbmNvZGluZz0iVVRGLTgiPz4KPHN2ZyB3aWR0aD0iMjNweCIgaGVpZ2h0PSIyOHB4IiB2aWV3Qm94PSIwIDAgMjMgMjgiIHZlcnNpb249IjEuMSIgeG1sbnM9Imh0dHA6Ly93d3cudzMub3JnLzIwMDAvc3ZnIiB4bWxuczp4bGluaz0iaHR0cDovL3d3dy53My5vcmcvMTk5OS94bGluayI+CiAgICA8IS0tIEdlbmVyYXRvcjogU2tldGNoIDUzICg3MjUyMCkgLSBodHRwczovL3NrZXRjaGFwcC5jb20gLS0+CiAgICA8dGl0bGU+UmVnaW9uIEJsYWNrPC90aXRsZT4KICAgIDxkZXNjPkNyZWF0ZWQgd2l0aCBTa2V0Y2guPC9kZXNjPgogICAgPGcgaWQ9IlBhZ2UtMSIgc3Ryb2tlPSJub25lIiBzdHJva2Utd2lkdGg9IjEiIGZpbGw9Im5vbmUiIGZpbGwtcnVsZT0iZXZlbm9kZCI+CiAgICAgICAgPGcgaWQ9IlJlZ2lvbi1CbGFjayIgdHJhbnNmb3JtPSJ0cmFuc2xhdGUoMC4xMjUwMDAsIDAuMDAwMDAwKSIgZmlsbD0iIzAwMDAwMCI+CiAgICAgICAgICAgIDxwYXRoIGQ9Ik0xMS4wMDAyLDggQzkuMzQzMiw4IDguMDAwMiw5LjM0MyA4LjAwMDIsMTEgQzguMDAwMiwxMi42NTcgOS4zNDMyLDE0IDExLjAwMDIsMTQgQzEyLjY1NzIsMTQgMTQuMDAwMiwxMi42NTcgMTQuMDAwMiwxMSBDMTMuOTk4Miw5LjM0NCAxMi42NTYyLDguMDAyIDExLjAwMDIsOCBNMTEuMDAwMiwxNiBDOC4yMzgyLDE2IDYuMDAwMiwxMy43NjEgNi4wMDAyLDExIEM2LjAwMDIsOC4yMzkgOC4yMzgyLDYgMTEuMDAwMiw2IEMxMy43NjEyLDYgMTYuMDAwMiw4LjIzOSAxNi4wMDAyLDExIEMxNS45OTcyLDEzLjc2IDEzLjc2MDIsMTUuOTk3IDExLjAwMDIsMTYiIGlkPSJGaWxsLTEiPjwvcGF0aD4KICAgICAgICAgICAgPGcgaWQ9Ikdyb3VwLTUiPgogICAgICAgICAgICAgICAgPHBhdGggZD0iTTMuODEyNywxNi4zOTUgQzMuODEzNywxNi4zOTUgNC4wNDU3LDE2LjcwMyA0LjA5ODcsMTYuNzcgTDEwLjk5OTcsMjQuOTA4IEwxNy45MTA3LDE2Ljc1OCBDMTcuOTU0NywxNi43MDMgMTguMTg4NywxNi4zOTMgMTguMTg4NywxNi4zOTIgQzE5LjM2NjcsMTQuODQxIDIwLjAwMTcsMTIuOTQ3IDE5Ljk5OTcsMTEgQzE5Ljk5OTcsNi4wMjkgMTUuOTcwNywyIDEwLjk5OTcsMiBDNi4wMjk3LDIgMi4wMDA3LDYuMDI5IDIuMDAwNywxMSBDMS45OTc3LDEyLjk0OCAyLjYzNDcsMTQuODQzIDMuODEyNywxNi4zOTUgTDMuODEyNywxNi4zOTUgWiBNMTAuOTk5NywyOCBMMi41NjQ3LDE4LjA1MSBDMi41MTY3LDE3Ljk5NCAyLjIxNjcsMTcuNiAyLjIxNjcsMTcuNiBDMC43NzQ3LDE1LjcwMiAtMC4wMDMzLDEzLjM4MyAtMC4wMDAzLDExIEMtMC4wMDAzLDQuOTI1IDQuOTI0NywwIDEwLjk5OTcsMCBDMTcuMDc1NywwIDIxLjk5OTcsNC45MjUgMjEuOTk5NywxMSBDMjIuMDAyNywxMy4zODIgMjEuMjI1NywxNS43IDE5Ljc4NTcsMTcuNTk3IEwxOS43ODM3LDE3LjYgQzE5Ljc4MzcsMTcuNiAxOS40ODM3LDE3Ljk5NCAxOS40Mzg3LDE4LjA0NyBMMTAuOTk5NywyOCBaIiBpZD0iRmlsbC0zIj48L3BhdGg+CiAgICAgICAgICAgIDwvZz4KICAgICAgICA8L2c+CiAgICA8L2c+Cjwvc3ZnPg==;" vertex="1" parent="On-hBTKfwMJXzhH4Zwc9-21">
          <mxGeometry x="22.66" y="6" width="17" height="20.69" as="geometry" />
        </mxCell>
        <mxCell id="On-hBTKfwMJXzhH4Zwc9-13" value="" style="rounded=0;whiteSpace=wrap;html=1;fontFamily=IBM Plex Sans;fontSource=fonts%2FIBMPlexSans-Regular.woff;fontSize=14;spacingBottom=-28;spacingTop=0;labelPosition=-100;verticalLabelPosition=top;align=center;verticalAlign=bottom;spacingLeft=9;spacing=0;expand=0;recursiveResize=0;spacingRight=0;container=1;collapsible=0;strokeColor=#6c8ebf;fillColor=#dae8fc;" vertex="1" parent="On-hBTKfwMJXzhH4Zwc9-21">
          <mxGeometry x="51" y="46" width="399" height="204" as="geometry">
            <mxRectangle width="670" as="alternateBounds" />
          </mxGeometry>
        </mxCell>
        <mxCell id="On-hBTKfwMJXzhH4Zwc9-14" value="" style="rounded=0;whiteSpace=wrap;html=1;strokeColor=none;fillColor=#1192E8;" vertex="1" parent="On-hBTKfwMJXzhH4Zwc9-13">
          <mxGeometry width="7" height="37" as="geometry" />
        </mxCell>
        <mxCell id="On-hBTKfwMJXzhH4Zwc9-15" value="Code Engine Project" style="text;html=1;strokeColor=none;fillColor=none;align=left;verticalAlign=middle;whiteSpace=wrap;rounded=0;fontFamily=IBM Plex Sans;fontSource=fonts%2FIBMPlexSans-Regular.woff;fontSize=14;" vertex="1" parent="On-hBTKfwMJXzhH4Zwc9-13">
          <mxGeometry x="51" y="8" width="163" height="20" as="geometry" />
        </mxCell>
        <mxCell id="On-hBTKfwMJXzhH4Zwc9-16" value="" style="shape=image;aspect=fixed;image=data:image/svg+xml,PD94bWwgdmVyc2lvbj0iMS4wIiBlbmNvZGluZz0iVVRGLTgiPz4KPHN2ZyB3aWR0aD0iMzNweCIgaGVpZ2h0PSIyNnB4IiB2aWV3Qm94PSIwIDAgMzMgMjYiIHZlcnNpb249IjEuMSIgeG1sbnM9Imh0dHA6Ly93d3cudzMub3JnLzIwMDAvc3ZnIiB4bWxuczp4bGluaz0iaHR0cDovL3d3dy53My5vcmcvMTk5OS94bGluayI+CiAgICA8IS0tIEdlbmVyYXRvcjogU2tldGNoIDUzICg3MjUyMCkgLSBodHRwczovL3NrZXRjaGFwcC5jb20gLS0+CiAgICA8dGl0bGU+Q2xvdWQgU2VydmljZXMgQmxhY2s8L3RpdGxlPgogICAgPGRlc2M+Q3JlYXRlZCB3aXRoIFNrZXRjaC48L2Rlc2M+CiAgICA8ZyBpZD0iUGFnZS0xIiBzdHJva2U9Im5vbmUiIHN0cm9rZS13aWR0aD0iMSIgZmlsbD0ibm9uZSIgZmlsbC1ydWxlPSJldmVub2RkIj4KICAgICAgICA8ZyBpZD0iQ2xvdWQtU2VydmljZXMtQmxhY2siIHRyYW5zZm9ybT0idHJhbnNsYXRlKDAuMDYyNTAwLCAtMS4wMDAwMDApIiBmaWxsPSIjMDAwMDAwIj4KICAgICAgICAgICAgPGcgaWQ9Ikdyb3VwLTMiIHRyYW5zZm9ybT0idHJhbnNsYXRlKDAuMDAwMDAwLCAwLjAwMjAwMCkiPgogICAgICAgICAgICAgICAgPHBhdGggZD0iTTI1LjgyMzEsOS4xMjQgQzI0Ljc4NzEsMy43IDE5LjU1MTEsMC4xNDIgMTQuMTI2MSwxLjE3NyBDMTAuMDk4MSwxLjk0NiA2Ljk0ODEsNS4wOTYgNi4xNzkxLDkuMTI0IEMwLjA5MjEsMTAuMjExIC0yLjk1NzksMTguMzYzIDMuOTY0MSwyMy42MzIgQzQuMjg1MSwyMy44NzcgNC42ODkxLDI0IDUuMDkzMSwyNCBMOC4wMDExLDI0IEw4LjAwMTEsMjIgTDUuNDQ4MSwyMiBDNS4xMDQxLDIyIDQuNzYyMSwyMS44NzcgNC41MTExLDIxLjY0MiBDLTAuMzUzOSwxNy4wODYgMi41ODYxLDExLjMzIDcuMTI0MSwxMS4wMiBMNy45NjExLDEwLjk2MyBMOC4zNTYxLDcuMjk4IEM4LjQwNzEsNi44MzIgOC42MTMxLDYuMzg2IDguOTU3MSw2LjA2NyBDMTUuNjAxMSwtMC4wOTQgMjMuMjc2MSwzLjkzNyAyMy45NTIxLDEwLjEzIEwyNC4wNDIxLDEwLjk2MyBMMjYuOTI2MSwxMS4xNiBDMjcuMjY5MSwxMS4xODQgMjcuNjAxMSwxMS4zMyAyNy44MzUxLDExLjU4MiBDMzIuMzc5MSwxNi40NiAyOS4wNTAxLDIyLjAwMyAyNC41MDExLDIyIEwyNC4wMDExLDIyIEwyNC4wMDExLDI0IEwyNy4yMTUxLDI0IEMyNy42NjExLDI0IDI4LjEwMzEsMjMuODQ4IDI4LjQzNzEsMjMuNTUyIEMzNC45MTQxLDE3LjgxNiAzMS42NjgxLDEwLjE2OCAyNS44MjMxLDkuMTI0IiBpZD0iRmlsbC0xIj48L3BhdGg+CiAgICAgICAgICAgIDwvZz4KICAgICAgICAgICAgPHBhdGggZD0iTTE1LjU3NCwyMi44MjU3IEMxMy45MTcsMjIuODI1NyAxMi41NzQsMjEuNDgyNyAxMi41NzQsMTkuODI1NyBDMTIuNTc0LDE4LjE2ODcgMTMuOTE3LDE2LjgyNTcgMTUuNTc0LDE2LjgyNTcgQzE3LjIzMSwxNi44MjU3IDE4LjU3NCwxOC4xNjg3IDE4LjU3NCwxOS44MjU3IEMxOC41NzIsMjEuNDgxNyAxNy4yMywyMi44MjM3IDE1LjU3NCwyMi44MjU3IEwxNS41NzQsMjIuODI1NyBaIE0yMy4wMDEsMjEuMDAxNyBMMjMuMDAxLDE5LjAwMTcgTDIwLjksMTkuMDAxNyBDMjAuNzcxLDE4LjM3NTcgMjAuNTIzLDE3Ljc4MDcgMjAuMTY4LDE3LjI0ODcgTDIxLjY1OCwxNS43NTk3IEwyMC4yNDQsMTQuMzQ1NyBMMTguNzU0LDE1LjgzNDcgQzE4LjIyMiwxNS40ODA3IDE3LjYyNywxNS4yMzE3IDE3LjAwMSwxNS4xMDI3IEwxNy4wMDEsMTMuMDAxNyBMMTUuMDAxLDEzLjAwMTcgTDE1LjAwMSwxNS4xMDI3IEMxNC4zNzUsMTUuMjMxNyAxMy43OCwxNS40ODA3IDEzLjI0OCwxNS44MzQ3IEwxMS43NTgsMTQuMzQ0NyBMMTAuMzQ1LDE1Ljc1ODcgTDExLjgzNCwxNy4yNDg3IEMxMS40OCwxNy43ODA3IDExLjIzMSwxOC4zNzU3IDExLjEwMiwxOS4wMDE3IEw5LjAwMSwxOS4wMDE3IEw5LjAwMSwyMS4wMDE3IEwxMS4xMDIsMjEuMDAxNyBDMTEuMjMxLDIxLjYyNzcgMTEuNDgsMjIuMjIyNyAxMS44MzQsMjIuNzU0NyBMMTAuMzQ0LDI0LjI0NDcgTDExLjc1OCwyNS42NTg3IEwxMy4yNDgsMjQuMTY4NyBDMTMuNzgsMjQuNTIzNyAxNC4zNzUsMjQuNzcxNyAxNS4wMDEsMjQuOTAwNyBMMTUuMDAxLDI3LjAwMTcgTDE3LjAwMSwyNy4wMDE3IEwxNy4wMDEsMjQuOTAwNyBDMTcuNjI3LDI0Ljc3MTcgMTguMjIyLDI0LjUyMzcgMTguNzU0LDI0LjE2ODcgTDIwLjI0NCwyNS42NTg3IEwyMS42NTgsMjQuMjQ0NyBMMjAuMTY4LDIyLjc1NDcgQzIwLjUyMywyMi4yMjI3IDIwLjc3MSwyMS42Mjc3IDIwLjksMjEuMDAxNyBMMjMuMDAxLDIxLjAwMTcgWiIgaWQ9IkZpbGwtNCI+PC9wYXRoPgogICAgICAgIDwvZz4KICAgIDwvZz4KPC9zdmc+;" vertex="1" parent="On-hBTKfwMJXzhH4Zwc9-13">
          <mxGeometry x="20" y="6.65" width="25" height="19.71" as="geometry" />
        </mxCell>
        <mxCell id="On-hBTKfwMJXzhH4Zwc9-43" style="edgeStyle=orthogonalEdgeStyle;rounded=0;orthogonalLoop=1;jettySize=auto;html=1;entryX=0.5;entryY=0;entryDx=0;entryDy=0;startArrow=classic;startFill=1;endArrow=none;endFill=0;dashed=1;dashPattern=1 1;strokeWidth=2;" edge="1" parent="On-hBTKfwMJXzhH4Zwc9-13" source="On-hBTKfwMJXzhH4Zwc9-26" target="On-hBTKfwMJXzhH4Zwc9-38">
          <mxGeometry relative="1" as="geometry">
            <Array as="points">
              <mxPoint x="95" y="54" />
            </Array>
          </mxGeometry>
        </mxCell>
        <mxCell id="On-hBTKfwMJXzhH4Zwc9-26" value="Function" style="shape=image;aspect=fixed;image=data:image/svg+xml,PHN2ZyBpZD0iTGF5ZXJfMSIgZGF0YS1uYW1lPSJMYXllciAxIiB4bWxucz0iaHR0cDovL3d3dy53My5vcmcvMjAwMC9zdmciIHZpZXdCb3g9IjAgMCA0OSA0OSI+PGRlZnM+PHN0eWxlPi5jbHMtMXtmaWxsOiNhNTZlZmY7fS5jbHMtMntmaWxsOiNmZmY7fS5jbHMtM3tmaWxsOm5vbmU7fTwvc3R5bGU+PC9kZWZzPjxyZWN0IGNsYXNzPSJjbHMtMSIgeD0iMC41IiB5PSIwLjUiIHdpZHRoPSI0OCIgaGVpZ2h0PSI0OCIvPjxwYXRoIGNsYXNzPSJjbHMtMiIgZD0iTTE3Ljc3LDMwLjA5YTguNzUsOC43NSwwLDAsMSw0LjQ3LTE0bC4zMiwxLjJhNy41LDcuNSwwLDAsMC0zLjgzLDEyWiIvPjxwYXRoIGNsYXNzPSJjbHMtMiIgZD0iTTI2Ljc3LDMzbC0uMzMtMS4yYTcuNSw3LjUsMCwwLDAsMy44My0xMmwxLS44YTguNzUsOC43NSwwLDAsMS00LjQ2LDE0WiIvPjxyZWN0IGNsYXNzPSJjbHMtMyIgeD0iMTQuNSIgeT0iMTQuNSIgd2lkdGg9IjIwIiBoZWlnaHQ9IjIwIi8+PHBhdGggY2xhc3M9ImNscy0yIiBkPSJNMjAuNzUsMzIuNjNIMTkuNVYzMC4yNGwuNS0uMWMuOTEtLjE4LDItLjg4LDItMy4xNHYtLjg2bC0yLjUtMS4yNXYtMS40TDIyLDIyLjI0VjIyYzAtMy40MiwyLjQ1LTUuNjIsNi4yNS01LjYySDI5LjV2Mi4zOGwtLjUuMWMtLjkxLjE4LTIsLjg4LTIsMy4xNHYuMjRsMi41LDEuMjV2MS40TDI3LDI2LjE0VjI3QzI3LDMwLjQyLDI0LjU1LDMyLjYzLDIwLjc1LDMyLjYzWm0wLTEuMjVjMy4wOCwwLDUtMS42OCw1LTQuMzhWMjUuMzZsMi4zNS0xLjE3TDI1Ljc1LDIzVjIyYzAtMi44NiwxLjQ5LTMuODcsMi41LTQuMjJ2LS4xNWMtMy4wOCwwLTUsMS42Ny01LDQuMzd2MUwyMC45LDI0LjE5bDIuMzUsMS4xN1YyN2MwLDIuODYtMS40OSwzLjg3LTIuNSw0LjIyWiIvPjwvc3ZnPg==;fontFamily=IBM Plex Sans;fontSource=fonts%2FIBMPlexSans-Regular.woff;labelPosition=center;verticalLabelPosition=bottom;align=center;verticalAlign=top;spacingTop=-7;fontSize=14;" vertex="1" parent="On-hBTKfwMJXzhH4Zwc9-13">
          <mxGeometry x="235" y="30" width="48" height="48" as="geometry" />
        </mxCell>
        <mxCell id="On-hBTKfwMJXzhH4Zwc9-36" value="Web app" style="shape=image;aspect=fixed;image=data:image/svg+xml,PHN2ZyBpZD0iTGF5ZXJfMSIgZGF0YS1uYW1lPSJMYXllciAxIiB4bWxucz0iaHR0cDovL3d3dy53My5vcmcvMjAwMC9zdmciIHZpZXdCb3g9IjAgMCA0OSA0OSI+PGRlZnM+PHN0eWxlPi5jbHMtMXtmaWxsOiNhNTZlZmY7fS5jbHMtMntmaWxsOm5vbmU7fS5jbHMtM3tmaWxsOiNmZmY7ZmlsbC1ydWxlOmV2ZW5vZGQ7fTwvc3R5bGU+PC9kZWZzPjxyZWN0IGNsYXNzPSJjbHMtMSIgeD0iMC41IiB5PSIwLjUiIHdpZHRoPSI0OCIgaGVpZ2h0PSI0OCIgcng9IjgiLz48cmVjdCBjbGFzcz0iY2xzLTIiIHg9IjE0LjczIiB5PSIxNC41IiB3aWR0aD0iMjAiIGhlaWdodD0iMjAiLz48cmVjdCBjbGFzcz0iY2xzLTIiIHg9IjE0LjUiIHk9IjE0LjUiIHdpZHRoPSIyMCIgaGVpZ2h0PSIyMCIvPjxwYXRoIGlkPSJGaWxsLTEiIGNsYXNzPSJjbHMtMyIgZD0iTTE2LjI1LDI0LjIySDI0VjE2LjQ5SDE2LjI1Wk0yNCwyNS43N0gxNi4yNWExLjU0LDEuNTQsMCwwLDEtMS41NC0xLjU1VjE2LjQ5YTEuNTUsMS41NSwwLDAsMSwxLjU0LTEuNTVIMjRhMS41NSwxLjU1LDAsMCwxLDEuNTUsMS41NXY3LjczQTEuNTQsMS41NCwwLDAsMSwyNCwyNS43N1oiLz48cGF0aCBpZD0iRmlsbC0zIiBjbGFzcz0iY2xzLTMiIGQ9Ik0zMS43MiwxOS41OGgtMy4xYTEuNTUsMS41NSwwLDAsMC0xLjU0LDEuNTV2My4wOWExLjU0LDEuNTQsMCwwLDAsMS41NCwxLjU1aDMuMWExLjU0LDEuNTQsMCwwLDAsMS41NC0xLjU1VjIxLjEzYTEuNTUsMS41NSwwLDAsMC0xLjU0LTEuNTVabS0zLjEsNC42NGgzLjFWMjEuMTNoLTMuMVoiLz48cGF0aCBpZD0iRmlsbC00IiBjbGFzcz0iY2xzLTMiIGQ9Ik0zMS43MiwyNy4zMWgtMy4xYTEuNTUsMS41NSwwLDAsMC0xLjU0LDEuNTVWMzJhMS41NCwxLjU0LDAsMCwwLDEuNTQsMS41NWgzLjFBMS41NCwxLjU0LDAsMCwwLDMzLjI2LDMyVjI4Ljg2YTEuNTUsMS41NSwwLDAsMC0xLjU0LTEuNTVaTTI4LjYyLDMyaDMuMVYyOC44NmgtMy4xWiIvPjxwYXRoIGlkPSJGaWxsLTUiIGNsYXNzPSJjbHMtMyIgZD0iTTI0LDI3LjMxSDIwLjg5YTEuNTUsMS41NSwwLDAsMC0xLjU0LDEuNTVWMzJhMS41NCwxLjU0LDAsMCwwLDEuNTQsMS41NUgyNEExLjU0LDEuNTQsMCwwLDAsMjUuNTMsMzJWMjguODZBMS41NSwxLjU1LDAsMCwwLDI0LDI3LjMxWk0yMC44OSwzMkgyNFYyOC44NkgyMC44OVoiLz48L3N2Zz4=;fontFamily=IBM Plex Sans;fontSource=fonts%2FIBMPlexSans-Regular.woff;fontSize=14;labelPosition=center;verticalLabelPosition=bottom;align=center;verticalAlign=top;spacingTop=-7;" vertex="1" parent="On-hBTKfwMJXzhH4Zwc9-13">
          <mxGeometry x="235" y="120" width="48" height="48" as="geometry" />
        </mxCell>
        <mxCell id="On-hBTKfwMJXzhH4Zwc9-38" value="" style="rounded=0;whiteSpace=wrap;html=1;fontFamily=IBM Plex Sans;fontSource=fonts%2FIBMPlexSans-Regular.woff;fontSize=14;fillColor=#f8cecc;spacingBottom=-28;spacingTop=0;labelPosition=-100;verticalLabelPosition=top;align=center;verticalAlign=bottom;spacingLeft=9;spacing=0;expand=0;recursiveResize=0;spacingRight=0;container=1;collapsible=0;strokeColor=#b85450;strokeWidth=1;" vertex="1" parent="On-hBTKfwMJXzhH4Zwc9-13">
          <mxGeometry x="9" y="70" width="171" height="90" as="geometry">
            <mxRectangle width="670" as="alternateBounds" />
          </mxGeometry>
        </mxCell>
        <mxCell id="On-hBTKfwMJXzhH4Zwc9-39" value="" style="rounded=0;whiteSpace=wrap;html=1;strokeColor=none;fillColor=#FA4D56;fontFamily=IBM Plex Sans;fontSource=fonts%2FIBMPlexSans-Regular.woff;fontSize=14;" vertex="1" parent="On-hBTKfwMJXzhH4Zwc9-38">
          <mxGeometry width="7" height="37" as="geometry" />
        </mxCell>
        <mxCell id="On-hBTKfwMJXzhH4Zwc9-40" value="Project Secrets" style="text;html=1;strokeColor=none;fillColor=none;align=left;verticalAlign=middle;whiteSpace=wrap;rounded=0;fontFamily=IBM Plex Sans;fontSource=fonts%2FIBMPlexSans-Regular.woff;fontSize=14;" vertex="1" parent="On-hBTKfwMJXzhH4Zwc9-38">
          <mxGeometry x="20" y="8.5" width="170" height="20" as="geometry" />
        </mxCell>
        <mxCell id="On-hBTKfwMJXzhH4Zwc9-42" value="1. Github webhook secret&lt;br&gt;2. IBM Cloud API key&lt;br&gt;3. Application Name" style="text;html=1;align=left;verticalAlign=middle;resizable=0;points=[];autosize=1;strokeColor=none;fillColor=none;" vertex="1" parent="On-hBTKfwMJXzhH4Zwc9-38">
          <mxGeometry x="20" y="28" width="160" height="60" as="geometry" />
        </mxCell>
        <mxCell id="On-hBTKfwMJXzhH4Zwc9-45" style="edgeStyle=orthogonalEdgeStyle;rounded=0;orthogonalLoop=1;jettySize=auto;html=1;entryX=0;entryY=0.75;entryDx=0;entryDy=0;startArrow=classic;startFill=1;" edge="1" parent="On-hBTKfwMJXzhH4Zwc9-21" source="On-hBTKfwMJXzhH4Zwc9-44" target="On-hBTKfwMJXzhH4Zwc9-26">
          <mxGeometry relative="1" as="geometry" />
        </mxCell>
        <mxCell id="On-hBTKfwMJXzhH4Zwc9-46" style="edgeStyle=orthogonalEdgeStyle;rounded=0;orthogonalLoop=1;jettySize=auto;html=1;exitX=0.75;exitY=0;exitDx=0;exitDy=0;entryX=0;entryY=0.5;entryDx=0;entryDy=0;startArrow=classic;startFill=1;" edge="1" parent="On-hBTKfwMJXzhH4Zwc9-21" source="On-hBTKfwMJXzhH4Zwc9-44" target="On-hBTKfwMJXzhH4Zwc9-36">
          <mxGeometry relative="1" as="geometry">
            <Array as="points">
              <mxPoint x="276" y="190" />
            </Array>
          </mxGeometry>
        </mxCell>
        <mxCell id="On-hBTKfwMJXzhH4Zwc9-44" value="Container&#xa;Registry" style="shape=image;aspect=fixed;image=data:image/svg+xml,PHN2ZyBpZD0iTGF5ZXJfMSIgZGF0YS1uYW1lPSJMYXllciAxIiB4bWxucz0iaHR0cDovL3d3dy53My5vcmcvMjAwMC9zdmciIHZpZXdCb3g9IjAgMCA0OSA0OSI+PGRlZnM+PHN0eWxlPi5jbHMtMXtmaWxsOiMxOTgwMzg7fS5jbHMtMntmaWxsOiNmZmY7fS5jbHMtM3tmaWxsOm5vbmU7fTwvc3R5bGU+PC9kZWZzPjxyZWN0IGNsYXNzPSJjbHMtMSIgeD0iMC41IiB5PSIwLjUiIHdpZHRoPSI0OCIgaGVpZ2h0PSI0OCIgcng9IjgiLz48cGF0aCBjbGFzcz0iY2xzLTIiIGQ9Ik0zMiwyN0gzMC43NXYxLjI1SDMyVjMySDE3VjI4LjI1aDEuMjVWMjdIMTdhMS4yNSwxLjI1LDAsMCwwLTEuMjUsMS4yNVYzMkExLjI1LDEuMjUsMCwwLDAsMTcsMzMuMjVIMzJBMS4yNSwxLjI1LDAsMCwwLDMzLjI1LDMyVjI4LjI1QTEuMjUsMS4yNSwwLDAsMCwzMiwyN1oiLz48Y2lyY2xlIGNsYXNzPSJjbHMtMiIgY3g9IjE4Ljg4IiBjeT0iMzAuMTMiIHI9IjAuNjIiLz48cmVjdCBjbGFzcz0iY2xzLTMiIHg9IjE0LjUiIHk9IjE0LjUiIHdpZHRoPSIyMCIgaGVpZ2h0PSIyMCIvPjxyZWN0IGNsYXNzPSJjbHMtMiIgeD0iMjIuNjMiIHk9IjE3IiB3aWR0aD0iMS4yNSIgaGVpZ2h0PSI1Ii8+PHJlY3QgY2xhc3M9ImNscy0yIiB4PSIyMC4xMyIgeT0iMTciIHdpZHRoPSIxLjI1IiBoZWlnaHQ9IjUiLz48cGF0aCBjbGFzcz0iY2xzLTIiIGQ9Ik0yNy42MiwyMkgyNi4zN2ExLjI2LDEuMjYsMCwwLDEtMS4yNS0xLjI1di0yLjVBMS4yNiwxLjI2LDAsMCwxLDI2LjM3LDE3aDEuMjVhMS4yNSwxLjI1LDAsMCwxLDEuMjUsMS4yNXYyLjVBMS4yNSwxLjI1LDAsMCwxLDI3LjYyLDIyWm0tMS4yNS0zLjc1djIuNWgxLjI1di0yLjVaIi8+PHJlY3QgY2xhc3M9ImNscy0yIiB4PSIyNy42MiIgeT0iMjMuMjUiIHdpZHRoPSIxLjI1IiBoZWlnaHQ9IjUiLz48cmVjdCBjbGFzcz0iY2xzLTIiIHg9IjIwLjEzIiB5PSIyMy4yNSIgd2lkdGg9IjEuMjUiIGhlaWdodD0iNSIvPjxwYXRoIGNsYXNzPSJjbHMtMiIgZD0iTTI1LjEyLDI4LjI1SDIzLjg4QTEuMjUsMS4yNSwwLDAsMSwyMi42MywyN1YyNC41YTEuMjUsMS4yNSwwLDAsMSwxLjI1LTEuMjVoMS4yNGExLjI1LDEuMjUsMCwwLDEsMS4yNSwxLjI1VjI3QTEuMjUsMS4yNSwwLDAsMSwyNS4xMiwyOC4yNVpNMjMuODgsMjQuNVYyN2gxLjI0VjI0LjVaIi8+PC9zdmc+;fontSize=14;fontFamily=IBM Plex Sans;fontSource=fonts%2FIBMPlexSans-Regular.woff;labelPosition=center;verticalLabelPosition=bottom;align=center;verticalAlign=top;spacingTop=-7;" vertex="1" parent="On-hBTKfwMJXzhH4Zwc9-21">
          <mxGeometry x="240" y="266" width="48" height="48" as="geometry" />
        </mxCell>
        <mxCell id="On-hBTKfwMJXzhH4Zwc9-27" style="edgeStyle=orthogonalEdgeStyle;rounded=0;orthogonalLoop=1;jettySize=auto;html=1;entryX=0.5;entryY=0;entryDx=0;entryDy=0;" edge="1" parent="1" target="On-hBTKfwMJXzhH4Zwc9-26">
          <mxGeometry relative="1" as="geometry">
            <mxPoint x="440" y="330" as="sourcePoint" />
          </mxGeometry>
        </mxCell>
        <mxCell id="On-hBTKfwMJXzhH4Zwc9-28" value="" style="rounded=0;whiteSpace=wrap;html=1;fontFamily=IBM Plex Sans;fontSource=fonts%2FIBMPlexSans-Regular.woff;fontSize=14;spacingBottom=-28;spacingTop=0;labelPosition=-100;verticalLabelPosition=top;align=center;verticalAlign=bottom;spacingLeft=9;spacing=0;expand=0;recursiveResize=0;spacingRight=0;container=1;collapsible=0;strokeColor=#82b366;fillColor=#d5e8d4;" vertex="1" parent="1">
          <mxGeometry x="730" y="524" width="340" height="126" as="geometry">
            <mxRectangle width="670" as="alternateBounds" />
          </mxGeometry>
        </mxCell>
        <mxCell id="On-hBTKfwMJXzhH4Zwc9-29" value="" style="rounded=0;whiteSpace=wrap;html=1;strokeColor=none;fillColor=#1192E8;" vertex="1" parent="On-hBTKfwMJXzhH4Zwc9-28">
          <mxGeometry width="7" height="37" as="geometry" />
        </mxCell>
        <mxCell id="On-hBTKfwMJXzhH4Zwc9-30" value="Github Webhook Function" style="text;html=1;strokeColor=none;fillColor=none;align=left;verticalAlign=middle;whiteSpace=wrap;rounded=0;fontFamily=IBM Plex Sans;fontSource=fonts%2FIBMPlexSans-Regular.woff;fontSize=14;" vertex="1" parent="On-hBTKfwMJXzhH4Zwc9-28">
          <mxGeometry x="51" y="8" width="189" height="20" as="geometry" />
        </mxCell>
        <mxCell id="On-hBTKfwMJXzhH4Zwc9-31" value="" style="shape=image;aspect=fixed;image=data:image/svg+xml,PD94bWwgdmVyc2lvbj0iMS4wIiBlbmNvZGluZz0iVVRGLTgiPz4KPHN2ZyB3aWR0aD0iMzNweCIgaGVpZ2h0PSIyOHB4IiB2aWV3Qm94PSIwIDAgMzMgMjgiIHZlcnNpb249IjEuMSIgeG1sbnM9Imh0dHA6Ly93d3cudzMub3JnLzIwMDAvc3ZnIiB4bWxuczp4bGluaz0iaHR0cDovL3d3dy53My5vcmcvMTk5OS94bGluayI+CiAgICA8IS0tIEdlbmVyYXRvcjogU2tldGNoIDUzICg3MjUyMCkgLSBodHRwczovL3NrZXRjaGFwcC5jb20gLS0+CiAgICA8dGl0bGU+T3ZlcmxheSBOZXR3b3JrIEJsYWNrPC90aXRsZT4KICAgIDxkZXNjPkNyZWF0ZWQgd2l0aCBTa2V0Y2guPC9kZXNjPgogICAgPGRlZnM+CiAgICAgICAgPHBvbHlnb24gaWQ9InBhdGgtMSIgcG9pbnRzPSIwIDAuOTk4MzA4OTY4IDMyLjAwMjIyMjQgMC45OTgzMDg5NjggMzIuMDAyMjIyNCAyMy45OTk5IDAgMjMuOTk5OSI+PC9wb2x5Z29uPgogICAgPC9kZWZzPgogICAgPGcgaWQ9IlBhZ2UtMSIgc3Ryb2tlPSJub25lIiBzdHJva2Utd2lkdGg9IjEiIGZpbGw9Im5vbmUiIGZpbGwtcnVsZT0iZXZlbm9kZCI+CiAgICAgICAgPGcgaWQ9Ik92ZXJsYXktTmV0d29yay1CbGFjayIgdHJhbnNmb3JtPSJ0cmFuc2xhdGUoMC4xNjIwMzcsIC0wLjUwMDAwMCkiPgogICAgICAgICAgICA8ZyBpZD0iVmlydHVhbC1TZXJ2ZXItQmxhY2stQ29weSI+CiAgICAgICAgICAgICAgICA8ZyBpZD0iR3JvdXAtNSIgdHJhbnNmb3JtPSJ0cmFuc2xhdGUoMC4wMDAwMDAsIDAuMDAxNTAwKSI+CiAgICAgICAgICAgICAgICAgICAgPG1hc2sgaWQ9Im1hc2stMiIgZmlsbD0id2hpdGUiPgogICAgICAgICAgICAgICAgICAgICAgICA8dXNlIHhsaW5rOmhyZWY9IiNwYXRoLTEiPjwvdXNlPgogICAgICAgICAgICAgICAgICAgIDwvbWFzaz4KICAgICAgICAgICAgICAgICAgICA8ZyBpZD0iQ2xpcC00Ij48L2c+CiAgICAgICAgICAgICAgICAgICAgPHBhdGggZD0iTTI1LjkxMTcsOS4xMjk5IEMyNS44NjI3LDkuMTIwOSAyNS44MjQ3LDkuMDgyOSAyNS44MTQ3LDkuMDM0OSBDMjUuMDEzNyw1LjA1MDkgMjEuODgyNywxLjk0NjkgMTcuODkxNywxLjE4MTkgQzEyLjQ3NDcsMC4xMzQ5IDcuMjI5NywzLjY3MTkgNi4xNzU3LDkuMDkzOSBDNi4xNjY3LDkuMTAyOSA2LjE2MDcsOS4xMDk5IDYuMTUwNyw5LjExODkgQzAuMDU2NywxMC4yMzU5IC0yLjkzNDMsMTguNDA2OSAzLjk3MjcsMjMuNjE0OSBDNC4zMTI3LDIzLjg3MjkgNC43Mzg3LDIzLjk5OTkgNS4xNjQ3LDIzLjk5OTkgTDguMDAxNywyMy45OTk5IEw4LjAwMTcsMjEuOTk5OSBMNy40OTY3LDIxLjk5OTkgQzQuNDUzNywyMS45OTA5IDEuOTkzNywxOS41MTY5IDIuMDAxNywxNi40NzM5IEMyLjAwMjcsMTYuMjE0OSAyLjAyMDcsMTUuOTU1OSAyLjA1NzcsMTUuNjk5OSBDMi40NzE3LDEzLjI5NzkgNC4zNjY3LDExLjQyNDkgNi43NzE3LDExLjAzODkgTDcuNzg4NywxMC44NTU5IEM3Ljg0MTcsMTAuODQ1OSA3Ljg4MjcsMTAuODA0OSA3Ljg5MjcsMTAuNzUxOSBMOC4wNzM3LDkuODE2OSBDOC42ODQ3LDYuMzM4OSAxMS40MzM3LDMuNjMxOSAxNC45MTk3LDMuMDczOSBDMTUuODY4NywyLjk0MzkgMTYuODMzNywyLjk4NTkgMTcuNzY2NywzLjE5ODkgQzIwLjkzMjcsMy45Njk5IDIzLjM0MzcsNi41MzY5IDIzLjkxNDcsOS43NDM5IEwyNC4xMDg3LDEwLjc1MTkgQzI0LjExODcsMTAuODA0OSAyNC4xNjA3LDEwLjg0NTkgMjQuMjEzNywxMC44NTU5IEwyNS4yNzA3LDExLjA0NjkgQzI2LjQzNzcsMTEuMjMxOSAyNy41MTk3LDExLjc2NzkgMjguMzcxNywxMi41ODU5IEMzMS4yMTA3LDE1LjQwMDkgMzAuMzQwNywyMC41NDI5IDI1LjczNzcsMjEuOTMzOSBDMjUuNTg2NywyMS45Nzk5IDI1LjQyNTcsMjEuOTk5OSAyNS4yNjc3LDIxLjk5OTkgTDI0LjAwMTcsMjEuOTk5OSBMMjQuMDAxNywyMy45OTk5IEwyNy4xNTg3LDIzLjk5OTkgQzI3LjYzMjcsMjMuOTk5OSAyOC4xMDA3LDIzLjgzOTkgMjguNDU1NywyMy41MjU5IEMzNC44NzA3LDE3LjgzOTkgMzEuNzA1NywxMC4yMzg5IDI1LjkxMTcsOS4xMjk5IiBpZD0iRmlsbC0zIiBmaWxsPSIjMDAwMDAwIiBtYXNrPSJ1cmwoI21hc2stMikiPjwvcGF0aD4KICAgICAgICAgICAgICAgIDwvZz4KICAgICAgICAgICAgPC9nPgogICAgICAgICAgICA8cG9seWdvbiBpZD0iRmlsbC0yIiBmaWxsPSIjMDAwMDAwIiBwb2ludHM9IjguNzI1NjA3ODIgMjIuNzM2MTE0MyAxMy43MjU2MDc4IDI3LjczNjExNDMgMTUuMTM1NjA3OCAyNi4zMjYxMTQzIDEyLjU1NTYwNzggMjMuNzM2MTE0MyAyMi43MjU2MDc4IDIzLjczNjExNDMgMjIuNzI1NjA3OCAyMS43MzYxMTQzIDEyLjU1NTYwNzggMjEuNzM2MTE0MyAxNS4xMzU2MDc4IDE5LjE0NjExNDMgMTMuNzI1NjA3OCAxNy43MzcxMTQzIj48L3BvbHlnb24+CiAgICAgICAgICAgIDxwb2x5Z29uIGlkPSJGaWxsLTMiIGZpbGw9IiMwMDAwMDAiIHBvaW50cz0iMTguNTAwNSA3LjczNzExNDMxIDE3LjA5MDUgOS4xNDcxMTQzMSAxOS42Njk1IDExLjczNzExNDMgOS41MDA1IDExLjczNzExNDMgOS41MDA1IDEzLjczNzExNDMgMTkuNjY5NSAxMy43MzcxMTQzIDE3LjA5MDUgMTYuMzI3MTE0MyAxOC41MDA1IDE3LjczNzExNDMgMjMuNDk5NSAxMi43MzYxMTQzIj48L3BvbHlnb24+CiAgICAgICAgPC9nPgogICAgPC9nPgo8L3N2Zz4=;" vertex="1" parent="On-hBTKfwMJXzhH4Zwc9-28">
          <mxGeometry x="20" y="6" width="23" height="19.52" as="geometry" />
        </mxCell>
        <mxCell id="On-hBTKfwMJXzhH4Zwc9-35" value="&lt;ol style=&quot;border-color: var(--border-color); font-family: &amp;quot;IBM Plex Sans&amp;quot;; font-size: 14px; text-align: left;&quot;&gt;&lt;li style=&quot;border-color: var(--border-color);&quot;&gt;Verify Github Signature&lt;/li&gt;&lt;li style=&quot;border-color: var(--border-color);&quot;&gt;Get existing application and return etag&lt;/li&gt;&lt;li style=&quot;border-color: var(--border-color);&quot;&gt;Set image tag based on Github commit SHA&lt;/li&gt;&lt;li style=&quot;border-color: var(--border-color);&quot;&gt;Update app with new image&amp;nbsp;&lt;/li&gt;&lt;/ol&gt;" style="text;html=1;align=center;verticalAlign=middle;resizable=0;points=[];autosize=1;strokeColor=none;fillColor=none;" vertex="1" parent="On-hBTKfwMJXzhH4Zwc9-28">
          <mxGeometry x="-10" y="16" width="340" height="110" as="geometry" />
        </mxCell>
        <mxCell id="On-hBTKfwMJXzhH4Zwc9-33" style="edgeStyle=orthogonalEdgeStyle;rounded=0;orthogonalLoop=1;jettySize=auto;html=1;entryX=0;entryY=0.395;entryDx=0;entryDy=0;entryPerimeter=0;" edge="1" parent="1" source="On-hBTKfwMJXzhH4Zwc9-26" target="On-hBTKfwMJXzhH4Zwc9-28">
          <mxGeometry relative="1" as="geometry" />
        </mxCell>
        <mxCell id="On-hBTKfwMJXzhH4Zwc9-37" style="edgeStyle=orthogonalEdgeStyle;rounded=0;orthogonalLoop=1;jettySize=auto;html=1;entryX=1;entryY=0.5;entryDx=0;entryDy=0;" edge="1" parent="1" target="On-hBTKfwMJXzhH4Zwc9-36">
          <mxGeometry relative="1" as="geometry">
            <mxPoint x="730" y="595" as="sourcePoint" />
          </mxGeometry>
        </mxCell>
      </root>
    </mxGraphModel>
  </diagram>
</mxfile>
